     <svg
        xmlns="http://www.w3.org/2000/svg"
        width="201"
        height="45"
        viewBox="0 0 201 45"
        fill="none"
      >
        <path
          fill-rule="evenodd"
          clip-rule="evenodd"
          d="M42.9695 31.843V42.8614C42.9695 44.8037 44.8704 44.8037 44.8704 44.8037H59.5539V41.9459H46.7033V38.4497H58.7739V36.1388H46.7033V32.7577H59.5539V29.991H44.8704C44.8704 29.991 42.9695 29.991 42.9695 31.843ZM36.351 41.9459L26.3861 29.991H19.446V44.8037H23.2018V32.7577L33.1659 44.8037H40.106V29.991H36.351V41.9459ZM0 31.843V42.8614C0 44.8037 1.90003 44.8037 1.90003 44.8037H16.5824V41.9459H3.73201V38.4497H15.8043V36.1388H3.73201V32.7577H16.5824V29.991H1.90003C1.90003 29.991 0 29.991 0 31.843ZM93.1779 36.1388V38.4497H99.3842C99.3842 41.9459 97.7598 41.9459 93.4765 41.9459C89.5816 41.9459 87.5431 41.9459 87.5431 38.4497V36.1388C87.5431 32.7577 89.8111 32.7577 93.4765 32.7577C97.1411 32.7577 99.1564 32.7577 99.043 34.3787H103.074C103.074 33.9913 103.051 33.6712 102.96 33.1228C102.569 30.3803 99.3842 29.8072 93.4765 29.8072C87.5431 29.8072 84.4981 30.4032 83.9476 33.1228C83.4894 35.3861 83.6056 39.6138 83.9476 41.5806C84.4279 44.3914 87.5431 44.9875 93.4765 44.9875C99.3842 44.9875 102.363 44.3685 102.868 41.5806C103.142 40.1169 103.074 38.1076 103.074 36.1388H93.1779ZM74.2583 37.6716H66.4017V32.7577H74.2583C76.7327 32.7577 77.0987 33.9684 77.0987 35.111C77.0987 36.5287 76.7327 37.6716 74.2583 37.6716ZM77.0987 29.991H62.4164V44.8037H66.4017V40.7802H74.2583C75.9767 40.7802 77.0987 41.6038 77.0987 42.3112V44.8037H81.1763V41.9459C81.1763 40.0266 79.5962 39.2245 78.3581 39.2245C79.5271 39.2245 80.8324 37.8095 81.1763 36.3226C81.382 35.3188 81.4512 34.2195 81.1763 32.9389C80.7873 31.2478 79.7104 29.991 77.0987 29.991ZM128.224 40.7573H135.554V37.6493H128.224V40.7573ZM121.764 38.4497C121.559 41.9459 119.885 41.9459 115.58 41.9459H115.558C111.25 41.9459 109.647 41.9247 109.348 38.4497C109.281 37.6716 109.281 36.917 109.348 36.1388C109.647 32.7797 111.183 32.7577 115.558 32.7577H115.58C119.954 32.7577 121.559 32.7577 121.764 36.1388C121.808 36.917 121.808 37.6716 121.764 38.4497ZM115.58 29.8072H115.558C109.348 29.8072 106.142 30.4262 105.569 33.1228C105.09 35.3401 105.18 39.2723 105.569 41.5806C106.028 44.3914 109.394 44.9875 115.558 44.9875H115.58C121.74 44.9875 124.926 44.3914 125.451 41.5806C125.864 39.2493 125.796 35.4074 125.451 33.1228C125.016 30.3803 121.788 29.8072 115.58 29.8072ZM149.709 37.6716H142.402V32.7577H149.709C152.184 32.7577 152.55 33.9684 152.55 35.111C152.55 36.5287 152.184 37.6716 149.709 37.6716ZM152.184 29.991H138.416V44.8037H142.402V40.7802H151.152C155.159 40.7556 156.603 38.4268 156.603 35.1809C156.603 32.8027 155.849 29.991 152.184 29.991ZM171.126 37.6716H163.246V32.7577H171.126C173.6 32.7577 173.943 33.9684 173.943 35.111C173.943 36.5287 173.6 37.6716 171.126 37.6716ZM173.943 29.991H159.283V44.8037H163.246V40.7802H171.126C172.821 40.7802 173.943 41.6038 173.943 42.3112V44.8037H178.02V41.9459C178.02 40.0266 176.462 39.2245 175.226 39.2245C176.393 39.2245 177.697 37.8095 178.02 36.3226C178.249 35.3188 178.318 34.2195 178.02 32.9389C177.632 31.2478 176.577 29.991 173.943 29.991ZM197.008 38.4497C196.804 41.9459 195.13 41.9459 190.803 41.9459H190.778C186.495 41.9459 184.892 41.9247 184.593 38.4497C184.526 37.6716 184.526 36.917 184.593 36.1388C184.87 32.7797 186.427 32.7577 190.778 32.7577H190.803C195.199 32.7577 196.804 32.7577 197.008 36.1388C197.031 36.917 197.031 37.6716 197.008 38.4497ZM200.672 33.1228C200.238 30.3803 197.008 29.8072 190.803 29.8072H190.778C184.593 29.8072 181.386 30.4262 180.814 33.1228C180.335 35.3401 180.425 39.2723 180.814 41.5806C181.273 44.3914 184.639 44.9875 190.778 44.9875H190.803C196.985 44.9875 200.17 44.3914 200.672 41.5806C201.109 39.2493 201.041 35.4074 200.672 33.1228Z"
          fill="#fff"
        />
        <path
          d="M103.623 0.136909C102.453 0.229032 101.309 0.320093 100.187 0.434079C89.0088 1.57691 78.6336 4.36542 69.585 12.9842H86.9916C93.6607 12.9842 95.5608 7.43009 100.187 2.88042C101.172 1.89785 102.295 0.960494 103.623 0.136909Z"
          fill="#153676"
        />
        <path
          d="M112.007 8.6642C107.126 8.6642 105.27 14.3565 100.187 18.9042C99.1794 19.8195 98.0334 20.6652 96.7051 21.4187C97.873 21.3497 99.0182 21.2355 100.187 21.1216C111.754 19.9097 123.758 16.802 132.323 8.6642H112.007Z"
          fill="#153676"
        />
        <path
          fill-rule="evenodd"
          clip-rule="evenodd"
          d="M111.617 6.28663C103.258 6.26349 101.791 21.4183 87.6359 21.4183H62.416C64.6379 16.9387 70.5713 15.1557 75.1975 15.1557H87.5217C98.2859 15.1786 99.1784 0 111.642 0H138.555C136.058 3.79592 133.173 6.26349 128.2 6.28663H111.617Z"
          fill="#3788DD"
        />
      </svg>